<?xml version="1.0" encoding="UTF-8"?>
<svg id="Layer_1" data-name="Layer 1" xmlns="http://www.w3.org/2000/svg" viewBox="0 0 288.48 310.55">
  <defs>
    <style>
      .cls-1 {
        fill: #f15a24;
      }

      .cls-2 {
        fill: #fff;
      }

      .cls-3 {
        fill: none;
        stroke: #f15a24;
        stroke-miterlimit: 10;
      }
    </style>
  </defs>
  <g>
    <g id="_Radial_Repeat_" data-name=" Radial Repeat ">
      <path class="cls-1" d="M161.43,230.19h0c-1.54,.34-2.63,1.56-2.51,2.83l2.3,25.36c.13,1.46,1.79,2.39,3.57,2l5.44-1.19c1.75-.38,2.87-1.88,2.43-3.25l-7.75-24.17c-.4-1.23-1.91-1.92-3.48-1.57h0Z"/>
    </g>
    <g id="_Radial_Repeat_-2" data-name=" Radial Repeat -2">
      <path class="cls-1" d="M98.96,219.06h0c-1.33-.85-2.96-.76-3.78,.22l-16.3,19.56c-.94,1.13-.42,2.96,1.11,3.94l4.69,3.01c1.51,.97,3.36,.7,4.02-.59l11.61-22.57c.59-1.15,0-2.71-1.35-3.58h0Z"/>
    </g>
    <g id="_Radial_Repeat_-3" data-name=" Radial Repeat -3">
      <path class="cls-1" d="M62.64,167.01h0c-.34-1.54-1.56-2.63-2.83-2.51l-25.36,2.3c-1.46,.13-2.39,1.79-2,3.57l1.19,5.44c.38,1.75,1.88,2.87,3.25,2.43l24.17-7.75c1.23-.4,1.92-1.91,1.57-3.48h.01Z"/>
    </g>
    <g id="_Radial_Repeat_-4" data-name=" Radial Repeat -4">
      <path class="cls-1" d="M73.77,104.53h0c.85-1.33,.76-2.96-.22-3.78l-19.56-16.3c-1.13-.94-2.96-.42-3.94,1.11l-3.01,4.69c-.97,1.51-.7,3.36,.59,4.02l22.57,11.61c1.15,.59,2.71,0,3.58-1.35h-.01Z"/>
    </g>
    <g id="_Radial_Repeat_-5" data-name=" Radial Repeat -5">
      <path class="cls-1" d="M125.82,68.22h0c1.54-.34,2.63-1.56,2.51-2.83l-2.3-25.36c-.13-1.46-1.79-2.39-3.57-2l-5.44,1.19c-1.75,.38-2.87,1.88-2.43,3.25l7.75,24.17c.4,1.23,1.91,1.92,3.48,1.57h0Z"/>
    </g>
    <g id="_Radial_Repeat_-6" data-name=" Radial Repeat -6">
      <path class="cls-1" d="M188.3,79.35h0c1.33,.85,2.96,.76,3.78-.22l16.3-19.56c.94-1.13,.42-2.96-1.11-3.94l-4.69-3.01c-1.51-.97-3.36-.7-4.02,.59l-11.61,22.57c-.59,1.15,0,2.71,1.35,3.58h0Z"/>
    </g>
    <g id="_Radial_Repeat_-7" data-name=" Radial Repeat -7">
      <path class="cls-1" d="M224.61,131.4h0c.34,1.54,1.56,2.63,2.83,2.51l25.36-2.3c1.46-.13,2.39-1.79,2-3.57l-1.19-5.44c-.38-1.75-1.88-2.87-3.25-2.43l-24.17,7.75c-1.23,.4-1.92,1.91-1.57,3.48h0Z"/>
    </g>
    <g id="_Radial_Repeat_-8" data-name=" Radial Repeat -8">
      <path class="cls-1" d="M213.48,193.87h0c-.85,1.33-.76,2.96,.22,3.78l19.56,16.3c1.13,.94,2.96,.42,3.94-1.11l3.01-4.69c.97-1.51,.7-3.36-.59-4.02l-22.57-11.61c-1.15-.59-2.71,0-3.58,1.35h0Z"/>
    </g>
  </g>
  <g>
    <g id="_Radial_Repeat_-9" data-name=" Radial Repeat -9">
      <path class="cls-1" d="M129.56,232.45h0c-.91-.22-1.74-.08-1.9,.31l-4.85,11.71c-.18,.43,.52,1.01,1.53,1.25l3.42,.81c.99,.24,1.87,.05,1.93-.41l1.43-12.53c.05-.42-.63-.93-1.56-1.15h0Z"/>
    </g>
    <g id="_Radial_Repeat_-10" data-name=" Radial Repeat -10">
      <path class="cls-1" d="M74.44,197.28h0c-.49-.8-1.17-1.29-1.56-1.12l-11.71,4.86c-.43,.18-.34,1.08,.2,1.96l1.84,2.99c.54,.87,1.29,1.36,1.65,1.07l9.87-7.85c.33-.27,.21-1.11-.29-1.91h0Z"/>
    </g>
    <g id="_Radial_Repeat_-11" data-name=" Radial Repeat -11">
      <path class="cls-1" d="M60.33,133.43h0c.22-.91,.08-1.74-.31-1.9l-11.71-4.85c-.43-.18-1.01,.52-1.25,1.53l-.81,3.42c-.24,.99-.05,1.87,.41,1.93l12.53,1.43c.42,.05,.93-.63,1.15-1.56h-.01Z"/>
    </g>
    <g id="_Radial_Repeat_-12" data-name=" Radial Repeat -12">
      <path class="cls-1" d="M95.5,78.3h0c.8-.49,1.29-1.17,1.12-1.56l-4.86-11.71c-.18-.43-1.08-.34-1.96,.2l-2.99,1.84c-.87,.54-1.36,1.29-1.07,1.65l7.85,9.87c.27,.33,1.11,.21,1.91-.29Z"/>
    </g>
    <g id="_Radial_Repeat_-13" data-name=" Radial Repeat -13">
      <path class="cls-1" d="M159.35,64.19h0c.91,.22,1.74,.08,1.9-.31l4.85-11.71c.18-.43-.52-1.01-1.53-1.25l-3.42-.81c-.99-.24-1.87-.05-1.93,.41l-1.43,12.53c-.05,.42,.63,.93,1.56,1.15h0Z"/>
    </g>
    <g id="_Radial_Repeat_-14" data-name=" Radial Repeat -14">
      <path class="cls-1" d="M214.48,99.36h0c.49,.8,1.17,1.29,1.56,1.12l11.71-4.86c.43-.18,.34-1.08-.2-1.96l-1.84-2.99c-.54-.87-1.29-1.36-1.65-1.07l-9.87,7.85c-.33,.27-.21,1.11,.29,1.91h0Z"/>
    </g>
    <g id="_Radial_Repeat_-15" data-name=" Radial Repeat -15">
      <path class="cls-1" d="M228.59,163.21h0c-.22,.91-.08,1.74,.31,1.9l11.71,4.85c.43,.18,1.01-.52,1.25-1.53l.81-3.42c.24-.99,.05-1.87-.41-1.93l-12.53-1.43c-.42-.05-.93,.63-1.15,1.56h0Z"/>
    </g>
    <g id="_Radial_Repeat_-16" data-name=" Radial Repeat -16">
      <path class="cls-1" d="M193.42,218.34h0c-.8,.49-1.29,1.17-1.12,1.56l4.86,11.71c.18,.43,1.08,.34,1.96-.2l2.99-1.84c.87-.54,1.36-1.29,1.07-1.65l-7.85-9.87c-.27-.33-1.11-.21-1.91,.29h0Z"/>
    </g>
  </g>
  <ellipse class="cls-1" cx="144" cy="150.76" rx="71.49" ry="70.66"/>
  <g>
    <path class="cls-2" d="M137.72,114.63s10.69-.81,12.32,3.25c0,0-2.47,2.44-5.75-.81,0,0-7.4-.14-6.57-1.7,.82-1.55,0-.74,0-.74Z"/>
    <path class="cls-2" d="M151.69,117.87s.82,1.36,0,1.49-2.47,.95-2.47,.95c0,0-.82,1.63,1.65,.81,1.65-.54,2.74-.81,3.29-.81,.82,0,3.29,.81,3.29,0s-.44-1.56-.44-1.56l-1.53-.88s-.63-1.09-2.21-.55"/>
    <path class="cls-2" d="M113.07,85.74s-2.47,8.12-6.57,12.18c0,0-2.06,5.28,2.06,6.09,0,0-1.65,6.5,4.1,8.94,0,0-5.75-12.18-.82-6.5,0,0,.82,4.87,4.1,5.68v4.37s9.04,6.19,10.69,2.94c0,0,3.29,3.25,8.22,3.25,0,0,5.75,9.67,9.04,5.24,0,0,4.93,1.26,2.47,6.13,0,0-5.75,5.68-3.29,11.37,2.47,5.68,2.47,1.63,4.93,10.56,0,0,9.86,4.06,4.93,15.43,0,0,0,5.68-.82,6.5s-2.47,3.25-2.47,7.31-7.4,11.37,4.1,12.99c0,0-4.1-3.25,1.65-6.5,0,0-1.65-1.63,3.29-4.87,0,0-4.1-2.44,1.65-2.44v-1.64s6.57,2.45,4.93-4.05c0,0,0-1.63,4.1,0,0,0,4.93-1.91,6.98-6.23s-.41-5.14,7.81-5.14c0,0,4.93-5.68,4.1-12.18,0,0,7.71-4.06,3.03-8.53-4.67-4.46-1.39-2.85-6.32-4.46-4.93-1.63,1.65,0-4.93-3.25,0,0-.82-7.31-9.04-8.12,0,0-6.57-10.56-9.04-4.06,0,0-2.47-1.63-4.1-.81,0,0,0-3.25-3.29-1.63-3.29,1.63-4.93-3.25-6.57,3.25,0,0-2.47-2.44-4.93-.81-2.46,1.63-4.93-3.25-2.47-6.5,0,0-.82-.81-7.4-.81,0,0,6.57-7.31-.82-6.5,0,0-4.1,8.12-8.22,0-4.1-8.12,15.61-8.12,15.61-8.12,0,0,.82,4.87,2.47,4.87s.82-2.44,.82-5.68,4.1-3.25,4.1-3.25l2.21-3.38s-.58-1.5,1.89-1.5,.82-1.63,3.29-1.63,2.47,0,4.1-.81c1.65-.81-1.65-1.63,1.65-1.63s4.93,1.63,4.93,.81,2.47-.81,0-2.44c-2.47-1.63-1.65-.81-4.1-2.44-2.47-1.63-4.1-2.44-4.1-2.44l-2.47-.81-4.1-.81c2.47-1.63,2.47-2.44,2.47-2.44l.82-.81,4.93,1.63s2.47,2.44,4.1,2.44,3.29,0,2.47-1.63c-.82-1.63-26.3-10.56-52.18,2.85l.02,.04Z"/>
    <path class="cls-2" d="M145.7,119.26c2.71,1.86,1.53,2.09,1.53,2.09l-1.53-.47v-1.62Z"/>
    <path class="cls-2" d="M159.07,119.26l-.91,1.05,.91,1.7s1.24,.38,1.45-.66,1.44-2.32,0-2.09-1.45,0-1.45,0Z"/>
    <path class="cls-2" d="M161.96,120.51c1.44,.91,.74,1.15,1.44,.91s2.77,.13,.32-.41"/>
    <path class="cls-2" d="M145.7,110.38s-1.4,.18-.58,1.81-.35,2.01,1.47,1.82,3.46,2.27,3.46,2.27h2.45v-.68s.02-.37-2.45-1.89l-2.47-1.51-1.88-1.81h0Z"/>
  </g>
  <g>
    <path class="cls-1" d="M7.72,98.39c1.56,.51,2.26,1.7,2.1,3.58l.39-.46c.8-.96,1.62-1.5,2.46-1.62,.64-.09,1.26-.04,1.85,.16,1.35,.44,2.23,1.26,2.66,2.48,.43,1.21,.36,2.69-.21,4.44-.18,.55-.39,1.13-.63,1.72l-.6,1.48c-.16,.39-.31,.82-.46,1.28-.11,.34-.24,.85-.38,1.52-.14,.68-.26,1.16-.35,1.44l-.06,.17c-.15,.45-.41,.77-.78,.96-.37,.18-.79,.2-1.26,.05-.4-.13-.69-.35-.89-.66s-.24-.62-.14-.95c.04-.13,.12-.29,.24-.5,.12-.2,.2-.36,.24-.48,.12-.38-.3-.73-1.26-1.04l-5.89-1.92c-.95-.31-1.49-.27-1.61,.11-.04,.11-.07,.29-.09,.52-.02,.24-.05,.42-.1,.55-.11,.33-.33,.56-.67,.69-.34,.13-.71,.13-1.11,0-.47-.15-.8-.41-1-.79-.2-.37-.23-.78-.08-1.24l.03-.08s.04-.06,.05-.08l.64-1.46c.18-.41,.39-.97,.62-1.68,.18-.55,.31-1,.39-1.33l.34-1.49c.08-.33,.22-.81,.42-1.44,.3-.94,.68-1.75,1.12-2.43,.44-.69,1.04-1.17,1.78-1.44,.74-.28,1.49-.29,2.24-.05h0Zm-1.09,8.2c.28,.09,.48,.09,.59,0,.08-.05,.17-.22,.26-.5l.21-.66c.24-.74,.3-1.37,.17-1.89s-.42-.85-.87-1c-.95-.31-1.67,.27-2.15,1.75-.18,.54-.25,.92-.23,1.15,.04,.34,.3,.59,.77,.74,0,0,1.25,.41,1.25,.41Zm6.45-2.63c-.58-.19-1.13-.08-1.66,.33-.52,.41-.93,1.05-1.21,1.91l-.21,.64c-.1,.31-.12,.53-.06,.66,.06,.13,.22,.24,.47,.32l1.55,.5c.54,.18,.96,.14,1.27-.1s.59-.78,.86-1.6c.2-.62,.21-1.18,.03-1.67-.19-.49-.53-.82-1.04-.99h0Z"/>
    <path class="cls-1" d="M12.04,89.79l1.41,.67,2.02-4.24-1.41-.67c-.42-.2-.65-.3-.7-.31-.3-.09-.5-.03-.61,.18-.04,.09-.08,.18-.1,.25l-.09,.18c-.28,.59-.83,.69-1.66,.3-.44-.21-.74-.51-.89-.88-.15-.38-.13-.77,.06-1.17,.13-.27,.35-.66,.68-1.16,.32-.51,.55-.89,.68-1.16,.17-.35,.35-.8,.54-1.35,.34-.96,.51-1.43,.5-1.42,.21-.43,.51-.71,.91-.84s.82-.09,1.27,.12c.38,.18,.64,.43,.8,.77,.16,.33,.16,.65,.01,.96-.06,.12-.16,.28-.31,.46-.15,.19-.25,.33-.3,.44-.13,.27-.04,.52,.25,.77,.12,.09,.4,.24,.83,.44l5.59,2.66c.92,.44,1.46,.47,1.63,.11,.05-.11,.1-.28,.16-.52s.11-.41,.16-.52c.15-.31,.4-.51,.76-.6s.73-.05,1.1,.13c.44,.21,.74,.51,.89,.91s.12,.81-.08,1.24c0,.01-.02,.04-.04,.08-.03,.02-.05,.04-.06,.07-.13,.27-.35,.66-.68,1.16-.32,.51-.55,.9-.69,1.18-.25,.52-.43,.98-.55,1.37-.18,.59-.33,1-.44,1.23-.19,.39-.48,.64-.87,.76-.39,.12-.81,.07-1.26-.14-.82-.39-1.09-.88-.81-1.48,.04-.08,.07-.14,.11-.17,.02-.04,.04-.09,.07-.14,.04-.05,.06-.08,.07-.09,.1-.22,.02-.41-.26-.6-.14-.08-.37-.2-.68-.35l-2-.95-2.02,4.24,2,.95c.46,.22,.69,.33,.71,.34,.3,.09,.51,.03,.62-.2,0-.01,.02-.05,.03-.11,.03-.05,.04-.09,.06-.12,0-.05,.03-.11,.07-.19,.28-.59,.83-.69,1.66-.3,.44,.21,.75,.51,.9,.89,.16,.38,.14,.77-.04,1.16-.12,.24-.32,.59-.62,1.05s-.51,.82-.63,1.07c-.28,.58-.49,1.1-.64,1.55-.23,.68-.4,1.16-.52,1.41-.21,.43-.5,.71-.9,.85-.39,.13-.81,.1-1.26-.12-.38-.18-.64-.44-.8-.78-.15-.34-.16-.66,0-.97,.05-.11,.15-.25,.3-.44s.25-.33,.3-.44c.17-.36-.2-.76-1.11-1.2l-5.59-2.66c-.9-.43-1.44-.46-1.61-.1-.05,.11-.1,.28-.16,.51-.05,.23-.11,.41-.17,.53-.15,.31-.4,.51-.75,.59-.36,.09-.72,.04-1.1-.14-.44-.21-.74-.52-.88-.91-.14-.4-.11-.81,.1-1.24,.06-.13,.31-.55,.74-1.23,.28-.46,.54-.93,.77-1.42,.2-.42,.36-.82,.48-1.21,.18-.58,.32-.98,.43-1.21,.19-.4,.48-.66,.88-.77,.39-.11,.81-.06,1.25,.15,.81,.38,1.07,.87,.79,1.47l-.09,.18s-.08,.12-.13,.21c-.11,.23-.03,.43,.23,.61,.01,0,.24,.12,.69,.33h0Z"/>
    <path class="cls-1" d="M28.69,72.63l-1.63,2.49c-.46,.71-.27,1.35,.58,1.9,.2,.13,.37,.09,.51-.12,.04-.06,.09-.16,.16-.3,.06-.14,.11-.24,.16-.3,.3-.46,.82-.45,1.56,.03,.4,.26,.66,.58,.77,.95,.11,.38,.05,.74-.18,1.09-.11,.17-.41,.53-.89,1.08-.21,.24-.47,.59-.78,1.07-.33,.51-.58,.92-.73,1.24-.34,.72-.56,1.14-.64,1.27-.25,.39-.58,.62-.97,.71-.4,.09-.79,0-1.18-.25-.87-.57-1.1-1.19-.66-1.85,.05-.07,.14-.19,.26-.34,.12-.15,.21-.26,.26-.34,.15-.24,.15-.52-.01-.84-.05-.09-.22-.32-.52-.71l-5.67-7.39c-.64-.85-.95-1.52-.91-2.04,.04-.36,.37-1.01,.98-1.95,.68-1.05,1.18-1.67,1.49-1.86s.82-.18,1.54,.04l9.54,2.81c.76,.23,1.22,.22,1.38-.03,.05-.07,.12-.22,.2-.43l.13-.21c.46-.7,1.1-.78,1.92-.24,.41,.27,.66,.61,.75,1.02,.09,.41,0,.82-.26,1.22-.11,.18-.28,.39-.51,.66-.29,.31-.47,.52-.55,.63-.2,.26-.45,.61-.73,1.04-.31,.48-.5,.8-.59,.98-.32,.7-.53,1.13-.63,1.3-.22,.34-.53,.53-.93,.58s-.79-.05-1.18-.3c-.74-.48-.95-.96-.64-1.43,.04-.06,.11-.15,.21-.26s.17-.2,.21-.26c.15-.24,.1-.44-.16-.61-.34-.22-.66-.33-.98-.34-.31,0-.54,.09-.68,.3h0Zm-3.05-1.6l-4.43-1.61,3.23,3.77s.07,.07,.12,.1c.15,.1,.33,0,.53-.32l.76-1.16c.21-.32,.23-.54,.06-.66,.01,0-.08-.03-.27-.12h0Z"/>
    <path class="cls-1" d="M38.76,53.28c-.05,.52-.3,1.2-.74,2.04,.83-.7,1.56-1.08,2.2-1.12,.64-.05,1.3,.22,1.98,.8,.21,.17,.4,.35,.58,.52l.2,.17c.47,.4,.81,.46,1.05,.18,.06-.07,.13-.19,.23-.35,.09-.17,.17-.28,.23-.35,.21-.25,.49-.36,.83-.34,.34,.03,.68,.18,1.02,.47,.38,.32,.58,.68,.61,1.09s-.1,.8-.41,1.16c-.11,.13-.28,.31-.54,.54-.25,.24-.43,.42-.53,.54-.12,.14-.27,.35-.47,.64s-.36,.5-.47,.64c-.36,.42-.82,.61-1.38,.57s-1.13-.3-1.7-.78c-.06-.05-.09-.09-.1-.12l-.96-.87-.12-.1c-.59-.5-1.13-.7-1.61-.59s-1.06,.55-1.72,1.34c-.27,.32-.35,.59-.25,.81,.07,.15,.25,.36,.56,.62l.39,.33c.77,.66,1.28,.84,1.52,.56,.07-.08,.15-.22,.25-.42s.19-.34,.27-.43c.2-.24,.48-.35,.84-.33s.69,.16,1.01,.43c.83,.7,.91,1.46,.23,2.25-.23,.27-.57,.62-1.03,1.04-.45,.42-.82,.8-1.11,1.14-.31,.36-.64,.81-.99,1.33-.35,.53-.66,.95-.94,1.28-.7,.83-1.47,.89-2.3,.19-.32-.27-.51-.58-.58-.94-.07-.36,0-.67,.23-.93,.09-.1,.23-.23,.42-.38s.33-.26,.39-.34c.26-.31,0-.79-.77-1.44l-4.72-4.01c-.36-.31-.61-.5-.73-.56-.34-.19-.61-.18-.81,.05-.08,.09-.17,.24-.28,.45s-.21,.37-.29,.47c-.22,.26-.52,.39-.88,.38-.37,0-.71-.15-1.03-.42-.36-.31-.57-.68-.62-1.1s.07-.81,.37-1.17c.06-.07,.11-.11,.15-.14l1.15-1.11c.32-.31,.65-.66,.98-1.05,.57-.67,1.25-1.55,2.06-2.63,.53-.72,.94-1.25,1.22-1.58,.92-1.08,1.91-1.71,2.99-1.88,1.08-.17,2.08,.14,3.01,.93,.85,.72,1.23,1.55,1.12,2.48v.04Zm-5.92,1.64c-.39,.45-.61,.77-.67,.96-.1,.35,.04,.68,.41,1l1.02,.87c.26,.22,.47,.32,.62,.31,.15-.02,.33-.15,.53-.38,1.25-1.48,1.44-2.59,.57-3.33-.77-.66-1.6-.46-2.49,.58h.01Z"/>
    <path class="cls-1" d="M52.42,45.54l-2.21,2c-.63,.57-.61,1.23,.07,1.98,.16,.18,.33,.18,.52,0,.06-.05,.13-.13,.23-.25s.17-.2,.23-.25c.41-.37,.91-.23,1.5,.42,.32,.35,.49,.73,.5,1.12s-.14,.73-.45,1.01c-.16,.14-.53,.41-1.13,.81-.26,.18-.6,.46-1.02,.84-.45,.41-.79,.75-1.02,1.01-.52,.61-.83,.96-.94,1.06-.34,.31-.72,.46-1.12,.44s-.76-.19-1.07-.54c-.7-.77-.76-1.43-.17-1.96,.07-.06,.18-.15,.34-.26,.16-.11,.27-.2,.34-.26,.21-.19,.28-.46,.2-.81-.03-.1-.13-.37-.32-.82l-3.61-8.59c-.4-.98-.53-1.72-.36-2.2,.13-.34,.61-.89,1.44-1.64,.93-.84,1.57-1.31,1.92-1.42,.35-.1,.84,.04,1.48,.43l8.52,5.15c.68,.41,1.12,.52,1.35,.32,.07-.06,.17-.18,.3-.36l.18-.17c.62-.56,1.26-.48,1.92,.25,.33,.36,.48,.76,.46,1.18-.02,.42-.21,.79-.56,1.11-.16,.14-.37,.31-.66,.51-.36,.22-.59,.38-.69,.47-.26,.2-.59,.47-.98,.82-.42,.38-.69,.65-.82,.8-.48,.6-.8,.96-.94,1.09-.3,.27-.65,.38-1.05,.33-.4-.05-.75-.25-1.06-.59-.59-.65-.67-1.17-.25-1.55,.06-.05,.15-.12,.27-.2,.13-.08,.22-.15,.27-.2,.21-.19,.21-.4,0-.63-.27-.3-.56-.49-.86-.58s-.55-.05-.73,.12h-.02Zm-2.54-2.31l-3.87-2.68,2.17,4.46s.05,.09,.09,.13c.12,.13,.32,.07,.59-.18l1.03-.93c.29-.26,.36-.47,.22-.62,0,0-.07-.05-.23-.19h0Z"/>
    <path class="cls-1" d="M62.8,39.42c.41-.29,.35-.82-.18-1.57l-3.73-5.25c-.58-.81-1.17-1.01-1.76-.59-.6,.42-.75,.84-.45,1.26,.09,.12,.24,.29,.46,.51s.37,.39,.46,.51c.77,1.08,.7,1.95-.21,2.59-.43,.3-.86,.4-1.29,.3-.44-.1-.82-.38-1.15-.84-.11-.16-.29-.46-.54-.91-.19-.34-.38-.65-.57-.91-.1-.15-.33-.43-.69-.85-.24-.29-.43-.52-.55-.7-.38-.53-.3-.99,.23-1.37,.28-.2,.65-.43,1.1-.7,1.03-.61,2.42-1.53,4.17-2.78,1.76-1.25,3.1-2.27,4.01-3.04,.4-.34,.73-.6,1-.79,.55-.39,1.01-.32,1.39,.22,.13,.18,.31,.46,.53,.84,.22,.38,.4,.66,.53,.84,.14,.19,.36,.47,.68,.84,.41,.48,.64,.75,.7,.82,.33,.46,.46,.92,.4,1.36s-.3,.81-.71,1.11c-.91,.65-1.74,.45-2.48-.6-.1-.15-.22-.35-.36-.62s-.25-.46-.33-.59c-.31-.44-.73-.47-1.27-.09-.35,.25-.54,.52-.55,.81-.02,.29,.14,.65,.46,1.1l3.73,5.25c.54,.75,1.01,.98,1.42,.69,.13-.09,.32-.26,.55-.48,.23-.23,.41-.39,.55-.49,.73-.52,1.35-.41,1.87,.32,.68,.96,.57,1.76-.34,2.41-.35,.25-.79,.52-1.31,.82-.78,.45-1.43,.85-1.96,1.23s-1.13,.86-1.8,1.44c-.44,.39-.84,.71-1.21,.97-.91,.65-1.68,.53-2.31-.36-.57-.8-.48-1.47,.26-1.99,.13-.1,.35-.21,.64-.36,.29-.14,.5-.26,.64-.36h-.03Z"/>
    <path class="cls-1" d="M80.55,16.2l5.13,6.62-1.54-7.92c-.13-.66-.15-1.15-.07-1.46,.08-.31,.29-.54,.62-.7,.3-.14,.77-.31,1.41-.53,.64-.22,1.12-.4,1.43-.54,.32-.15,1.1-.58,2.34-1.28,.35-.2,.62-.34,.79-.42,.45-.21,.87-.24,1.26-.1,.39,.14,.7,.44,.91,.9,.18,.38,.22,.75,.13,1.1-.09,.35-.29,.6-.6,.75-.12,.06-.3,.11-.54,.17-.24,.05-.41,.1-.5,.15-.37,.17-.34,.71,.08,1.61l2.61,5.62c.43,.92,.82,1.3,1.17,1.13,.11-.05,.26-.15,.45-.3s.35-.25,.45-.3c.31-.14,.63-.14,.97,.02,.34,.16,.59,.42,.77,.8,.21,.46,.25,.88,.1,1.27-.15,.39-.44,.69-.89,.9-.26,.12-.71,.28-1.35,.48-.43,.13-.85,.3-1.25,.48-.26,.12-.62,.33-1.09,.63-.47,.3-.83,.51-1.09,.63-.41,.19-.8,.21-1.17,.05-.38-.15-.67-.45-.88-.9-.39-.84-.31-1.39,.25-1.64,.08-.04,.15-.06,.19-.06,.04-.02,.09-.04,.14-.07,.06-.01,.1-.02,.11-.03,.22-.1,.28-.31,.18-.62-.05-.14-.15-.38-.3-.7l-3.56-7.65,1.82,11.29c.16,.98-.04,1.6-.59,1.85l-1.3,.6c-.54,.25-1.09,.04-1.65-.64l-7.4-8.87,3.56,7.65c.3,.64,.52,.97,.68,.99,.06,.02,.14,0,.25-.04,.03-.01,.06-.04,.11-.08,.04-.02,.08-.04,.12-.06,.03-.03,.09-.07,.17-.1,.54-.25,1,.04,1.39,.86,.21,.46,.26,.88,.14,1.27-.12,.38-.38,.67-.79,.86-.19,.09-.44,.18-.76,.28-.4,.12-.66,.2-.76,.23-.3,.1-.63,.24-.99,.41-.46,.21-.84,.41-1.13,.6l-1.18,.75c-.42,.2-.83,.21-1.23,.06-.4-.16-.7-.45-.91-.89-.18-.39-.23-.76-.13-1.11s.3-.6,.63-.75c.11-.05,.28-.1,.51-.15,.23-.05,.4-.1,.51-.15,.27-.13,.36-.38,.26-.76-.04-.15-.15-.44-.36-.87l-2.61-5.62c-.2-.43-.34-.7-.43-.81-.23-.32-.48-.42-.75-.29-.11,.05-.26,.15-.44,.29-.19,.15-.34,.25-.46,.3-.31,.14-.63,.14-.96-.02s-.58-.43-.76-.81c-.46-.99-.19-1.71,.81-2.18,.32-.15,.88-.37,1.67-.65,.79-.28,1.37-.51,1.75-.69,.61-.28,1.23-.62,1.85-1.01,.42-.26,.76-.45,1.02-.57,.34-.16,.61-.19,.82-.09s.5,.38,.86,.83h0Z"/>
    <path class="cls-1" d="M107.34,15.71l-2.86,.83c-.82,.24-1.08,.84-.8,1.82,.07,.23,.22,.31,.47,.24,.07-.02,.18-.06,.31-.13,.14-.06,.24-.11,.31-.13,.53-.15,.92,.19,1.16,1.04,.13,.46,.12,.87-.04,1.22-.16,.36-.44,.59-.84,.71-.2,.06-.66,.14-1.38,.24-.31,.04-.74,.15-1.29,.3-.59,.17-1.04,.33-1.36,.46-.73,.32-1.17,.5-1.31,.54-.44,.13-.84,.1-1.2-.09s-.6-.51-.73-.95c-.29-1-.06-1.61,.7-1.83,.09-.02,.23-.05,.42-.09s.33-.06,.42-.09c.27-.08,.45-.29,.53-.65,.02-.1,.04-.39,.07-.88l.51-9.3c.06-1.06,.28-1.77,.63-2.14,.27-.25,.94-.53,2.01-.84,1.2-.35,1.98-.5,2.34-.44s.74,.4,1.14,1.03l5.41,8.35c.43,.67,.79,.96,1.07,.88,.09-.02,.23-.09,.43-.2l.24-.07c.8-.23,1.34,.12,1.62,1.07,.14,.47,.1,.89-.1,1.26s-.53,.62-.99,.75c-.2,.06-.47,.11-.81,.17-.42,.05-.7,.09-.83,.12-.32,.06-.74,.17-1.24,.31-.54,.16-.91,.28-1.08,.36-.7,.33-1.14,.52-1.32,.57-.39,.11-.75,.06-1.08-.16-.34-.22-.57-.55-.7-1-.25-.84-.1-1.35,.45-1.5,.07-.02,.18-.04,.33-.06,.15-.02,.26-.04,.33-.06,.27-.08,.36-.27,.28-.57-.11-.39-.29-.69-.52-.9s-.47-.28-.71-.21v.02Zm-1.27-3.19l-2.31-4.1v4.96s0,.1,.02,.16c.05,.17,.25,.21,.61,.1l1.33-.39c.37-.11,.53-.26,.47-.46,0,.01-.04-.07-.12-.27Z"/>
    <path class="cls-1" d="M120.68,6.43l.23,1.55,4.65-.7-.23-1.55c-.07-.46-.11-.71-.13-.75-.09-.3-.25-.44-.49-.4-.1,.02-.19,.04-.26,.06l-.2,.03c-.65,.1-1.04-.3-1.18-1.2-.07-.49,0-.9,.23-1.23,.23-.34,.56-.54,1.01-.6,.29-.04,.74-.07,1.34-.09,.6-.01,1.05-.04,1.34-.09,.38-.06,.86-.16,1.42-.3,.99-.25,1.47-.38,1.46-.38,.47-.07,.87,.02,1.21,.28s.54,.63,.61,1.12c.06,.41,0,.78-.19,1.09s-.45,.5-.79,.55c-.13,.02-.32,.02-.55,0-.24-.02-.41-.02-.53,0-.29,.04-.46,.26-.49,.64,0,.15,.02,.46,.1,.94l.92,6.13c.15,1,.42,1.47,.82,1.41,.12-.02,.29-.07,.52-.16,.23-.09,.4-.14,.52-.16,.34-.05,.65,.05,.93,.29s.45,.57,.51,.99c.07,.49,0,.9-.25,1.25s-.6,.55-1.07,.62c0,0-.04,0-.09,.01-.03-.01-.06-.01-.09,0-.3,.04-.74,.07-1.34,.09-.6,.01-1.06,.05-1.37,.09-.58,.09-1.06,.19-1.45,.31-.59,.18-1.01,.29-1.26,.33-.43,.06-.8-.03-1.12-.3s-.51-.64-.59-1.12c-.13-.9,.12-1.4,.77-1.5,.09-.01,.16-.02,.2,0,.04,0,.1-.01,.15-.02h.11c.24-.04,.35-.22,.35-.55,0-.16-.04-.42-.09-.76l-.33-2.19-4.65,.7,.33,2.19c.08,.5,.11,.76,.12,.77,.09,.3,.26,.44,.51,.4,.01,0,.05-.02,.11-.04,.06,0,.1-.02,.13-.02,.04-.02,.11-.04,.2-.05,.65-.1,1.04,.3,1.18,1.2,.07,.49,0,.9-.23,1.25s-.55,.55-.98,.61c-.27,.04-.67,.06-1.22,.07s-.96,.03-1.24,.07c-.63,.09-1.18,.21-1.65,.34-.7,.19-1.18,.31-1.46,.35-.47,.07-.87-.02-1.21-.27-.33-.25-.54-.62-.61-1.11-.06-.41,0-.78,.2-1.09,.19-.32,.46-.5,.8-.55,.12-.02,.29-.02,.53,0s.41,.02,.53,0c.4-.06,.52-.59,.37-1.59l-.92-6.13c-.15-.99-.42-1.45-.82-1.39-.12,.02-.29,.07-.51,.16s-.4,.14-.53,.16c-.34,.05-.64-.05-.91-.29-.27-.25-.44-.58-.5-.99-.07-.49,.02-.9,.27-1.24,.25-.34,.61-.54,1.08-.61,.15-.02,.63-.05,1.44-.08,.54-.02,1.08-.07,1.61-.15,.46-.07,.88-.16,1.27-.28,.58-.18,.99-.28,1.24-.32,.44-.07,.82,.03,1.13,.29s.5,.64,.58,1.12c.13,.88-.12,1.38-.77,1.47l-.2,.03c-.06,0-.14,0-.25,.01-.25,.04-.38,.21-.37,.53,0,.01,.04,.27,.11,.75h-.02Z"/>
    <path class="cls-1" d="M141.41,15.72c-2.27,.06-4.04-.58-5.31-1.93-1.27-1.34-1.94-3.27-2-5.79-.06-2.43,.51-4.36,1.7-5.78S138.67,.06,140.84,0c2.27-.06,4.05,.58,5.35,1.9,1.3,1.33,1.98,3.2,2.04,5.63,.06,2.52-.5,4.5-1.7,5.94-1.19,1.44-2.9,2.19-5.12,2.24h0Zm-.34-12.58c-1.94,.05-2.87,1.65-2.79,4.81,.04,1.51,.25,2.62,.64,3.34,.48,.9,1.27,1.33,2.36,1.31,1.92-.05,2.85-1.61,2.77-4.68-.04-1.7-.3-2.93-.77-3.68-.47-.76-1.21-1.12-2.21-1.1Z"/>
    <path class="cls-1" d="M153.97,12.7c.51,.04,.8-.4,.88-1.32l.55-6.42c.08-1-.24-1.52-.96-1.59-.73-.06-1.11,.16-1.16,.66,0,.15,0,.38,.02,.69s.03,.54,.02,.69c-.11,1.32-.73,1.94-1.84,1.84-.52-.04-.92-.25-1.18-.61-.27-.36-.38-.82-.33-1.39,.02-.19,.08-.54,.18-1.04,.08-.38,.13-.74,.16-1.06,.02-.18,.02-.54,.03-1.1,0-.37,0-.67,.03-.9,.06-.65,.41-.95,1.06-.9,.34,.03,.77,.09,1.29,.18,1.18,.21,2.84,.4,4.98,.58,2.15,.18,3.83,.27,5.03,.27,.52,0,.95,.01,1.28,.04,.67,.06,.97,.41,.92,1.07-.02,.22-.07,.55-.14,.99-.08,.44-.12,.76-.14,.99-.02,.24-.03,.6-.02,1.08v1.08c-.05,.56-.24,1-.57,1.3s-.75,.43-1.26,.39c-1.12-.09-1.62-.78-1.51-2.06,.02-.18,.06-.41,.13-.71,.07-.29,.11-.51,.12-.66,.04-.54-.26-.83-.91-.89-.43-.04-.74,.05-.94,.26-.2,.21-.32,.59-.37,1.14l-.55,6.42c-.08,.92,.13,1.4,.64,1.45,.16,.01,.41,0,.73-.02,.32-.02,.57-.03,.73-.02,.89,.08,1.3,.56,1.22,1.45-.1,1.17-.71,1.71-1.82,1.62-.43-.04-.94-.11-1.53-.22-.88-.17-1.65-.28-2.28-.33-.65-.06-1.42-.08-2.31-.06-.58,0-1.1,0-1.54-.04-1.12-.09-1.63-.68-1.53-1.77,.08-.98,.58-1.43,1.48-1.35,.16,.01,.4,.06,.72,.14,.32,.08,.55,.13,.72,.14h-.03Z"/>
    <path class="cls-1" d="M172.73,2.54c1.52,.29,2.62,1.04,3.3,2.25,.11-.51,.28-.84,.5-1,.22-.15,.56-.19,1.01-.1,.94,.18,1.33,.67,1.18,1.46-.04,.22-.13,.54-.25,.95-.13,.42-.21,.73-.25,.95-.03,.13-.05,.32-.07,.58-.02,.25-.04,.45-.07,.58l-.02,.11c-.17,.86-.75,1.2-1.74,1.01-.83-.16-1.26-.61-1.29-1.34l-.02-.48c-.04-.99-.72-1.62-2.05-1.88-1.26-.24-1.97,.08-2.14,.95-.09,.45,0,.79,.23,1,.24,.21,.89,.54,1.94,.97,1.77,.72,3.01,1.53,3.7,2.42s.92,1.97,.68,3.23c-.29,1.48-1.02,2.59-2.22,3.34-1.19,.75-2.57,.97-4.14,.67-1.3-.25-2.46-.96-3.49-2.13-.2,.81-.72,1.14-1.55,.98-.95-.18-1.34-.74-1.16-1.68,.06-.31,.15-.63,.26-.98,.15-.46,.25-.81,.3-1.06,.03-.16,.06-.41,.09-.76,.03-.34,.06-.6,.09-.76,.07-.38,.29-.66,.65-.84s.79-.22,1.29-.13c.56,.11,.93,.31,1.13,.59s.28,.77,.26,1.45c-.05,1.13,.68,1.84,2.19,2.13,.62,.12,1.13,.07,1.56-.16,.42-.22,.68-.57,.77-1.04,.1-.51,0-.91-.27-1.18-.28-.27-1-.67-2.16-1.2l-1.38-.63c-.6-.28-1.13-.68-1.59-1.2-.9-.99-1.22-2.16-.97-3.49,.26-1.35,.92-2.35,1.98-3.02s2.31-.86,3.75-.59l-.03,.03Z"/>
    <path class="cls-1" d="M188.53,17.61l-2.84-.9c-.81-.26-1.37,.1-1.67,1.07-.07,.23,0,.38,.25,.46,.07,.02,.18,.05,.33,.07,.15,.02,.26,.05,.33,.07,.53,.17,.66,.67,.39,1.51-.14,.46-.38,.79-.71,.99-.33,.21-.7,.25-1.09,.12-.2-.06-.62-.25-1.28-.57-.29-.14-.7-.29-1.24-.46-.58-.18-1.04-.31-1.39-.37-.79-.14-1.25-.23-1.39-.27-.44-.14-.76-.39-.95-.75s-.22-.76-.08-1.2c.31-1,.85-1.37,1.6-1.14,.09,.03,.22,.08,.4,.16s.31,.13,.4,.16c.27,.08,.54,0,.8-.24,.07-.07,.25-.3,.55-.69l5.59-7.45c.64-.85,1.21-1.32,1.72-1.43,.36-.06,1.08,.08,2.14,.42,1.19,.38,1.92,.69,2.19,.94s.39,.74,.37,1.49l-.14,9.95c-.02,.79,.12,1.23,.4,1.32,.08,.03,.24,.05,.47,.08l.24,.07c.8,.25,1.05,.85,.75,1.78-.15,.47-.41,.8-.78,1s-.79,.22-1.24,.08c-.2-.06-.46-.17-.77-.31-.38-.2-.63-.32-.76-.36-.3-.13-.71-.27-1.2-.43-.54-.17-.91-.27-1.1-.3-.76-.12-1.23-.2-1.42-.26-.38-.12-.65-.37-.81-.74-.16-.37-.17-.78-.03-1.22,.26-.84,.67-1.17,1.21-1,.07,.02,.17,.07,.31,.13,.14,.07,.24,.11,.31,.13,.27,.09,.45-.02,.55-.32,.12-.38,.14-.73,.07-1.03-.08-.31-.24-.5-.48-.57h0Zm.71-3.35l.36-4.7-2.76,4.13s-.05,.09-.07,.14c-.05,.17,.1,.31,.45,.42l1.32,.42c.37,.12,.59,.08,.65-.12,0,.01,0-.08,.04-.29h.01Z"/>
    <path class="cls-1" d="M202.68,16l-1.1,7.4,4.88-5.71c.17-.2,.28-.35,.32-.44,.1-.23,.04-.39-.18-.47l-.29-.11-.04-.02c-.63-.28-.76-.83-.39-1.65,.44-.99,1.1-1.3,1.97-.91,.29,.13,.69,.35,1.22,.67s.93,.54,1.22,.67c.44,.19,.84,.34,1.22,.45,.57,.16,.97,.29,1.22,.4,.42,.19,.7,.47,.84,.85,.14,.38,.12,.78-.07,1.2-.18,.4-.42,.68-.74,.87s-.62,.21-.91,.08c-.1-.04-.22-.13-.38-.25-.16-.13-.26-.2-.32-.23-.33-.15-.94,.28-1.85,1.28l-5.88,6.46c-.87,.95-1.66,1.27-2.36,.95-.14-.06-.34-.16-.6-.3-.26-.14-.46-.24-.6-.3s-.34-.14-.61-.23-.47-.17-.61-.23c-.72-.32-.98-1.39-.78-3.19l.99-8.72c.08-.76-.02-1.21-.29-1.33-.09-.04-.23-.08-.41-.1-.18-.02-.34-.07-.49-.13-.3-.13-.49-.37-.56-.7-.07-.33-.02-.7,.16-1.09,.44-.99,1.16-1.27,2.16-.82,.27,.12,.67,.34,1.2,.66s.93,.54,1.22,.67c.41,.18,.89,.36,1.43,.52,.55,.16,.92,.29,1.13,.38,.9,.4,1.12,1.11,.67,2.11-.36,.8-.82,1.08-1.38,.83l-.2-.09s-.09-.07-.17-.1c-.25-.11-.42-.05-.52,.18-.05,.12-.1,.29-.13,.51v-.02Z"/>
    <path class="cls-1" d="M228.34,27.31l-3.15,7.76,6.08-5.31c.51-.44,.92-.71,1.22-.8,.31-.09,.61-.02,.92,.19,.27,.19,.66,.5,1.17,.95s.9,.77,1.18,.96c.29,.21,1.05,.66,2.29,1.38,.35,.21,.6,.36,.76,.48,.4,.28,.64,.63,.72,1.04s-.03,.82-.32,1.24c-.24,.34-.53,.56-.89,.66-.35,.1-.67,.05-.95-.14-.11-.08-.25-.2-.41-.38-.17-.18-.29-.3-.38-.36-.33-.23-.78,.06-1.35,.88l-3.55,5.08c-.58,.83-.71,1.36-.39,1.58,.1,.07,.26,.15,.49,.24s.39,.17,.49,.24c.28,.2,.44,.48,.47,.85s-.07,.72-.31,1.07c-.29,.42-.64,.66-1.05,.73s-.82-.04-1.22-.32c-.23-.16-.6-.47-1.1-.93-.33-.3-.68-.59-1.05-.84-.23-.16-.6-.37-1.09-.62-.5-.26-.86-.46-1.09-.63-.37-.26-.58-.59-.63-.99-.06-.4,.06-.81,.34-1.21,.53-.76,1.04-.96,1.55-.61,.07,.05,.12,.1,.15,.13,.04,.03,.08,.06,.13,.09,.04,.05,.07,.07,.08,.08,.2,.14,.41,.08,.63-.16,.1-.11,.25-.32,.45-.61l4.83-6.92-8.85,7.24c-.77,.63-1.4,.77-1.9,.42l-1.17-.82c-.49-.34-.58-.92-.28-1.75l3.95-10.86-4.83,6.91c-.4,.58-.57,.94-.51,1.09,0,.06,.07,.13,.16,.2,.02,.02,.07,.04,.12,.06,.04,.03,.07,.05,.11,.08,.05,0,.11,.05,.18,.1,.49,.34,.47,.89-.05,1.63-.29,.42-.63,.67-1.02,.76s-.77,0-1.14-.25c-.17-.12-.38-.29-.62-.52-.31-.29-.5-.47-.58-.54-.24-.2-.52-.42-.85-.65-.42-.29-.78-.52-1.08-.67l-1.24-.65c-.38-.27-.6-.61-.67-1.04s.04-.84,.31-1.23c.25-.35,.54-.58,.89-.67,.35-.09,.67-.04,.96,.17,.1,.07,.23,.19,.39,.37s.29,.3,.39,.37c.25,.17,.51,.12,.79-.16,.11-.1,.3-.35,.57-.74l3.55-5.08c.27-.39,.44-.65,.49-.78,.16-.36,.12-.63-.13-.8-.1-.07-.26-.15-.48-.24s-.38-.17-.49-.25c-.28-.2-.44-.48-.46-.84-.03-.36,.08-.72,.32-1.06,.62-.89,1.39-1.02,2.29-.39,.29,.21,.76,.58,1.4,1.12s1.13,.93,1.48,1.17c.55,.38,1.15,.75,1.8,1.09,.44,.23,.77,.43,1,.59,.31,.21,.47,.44,.49,.67s-.08,.62-.29,1.16h-.02Z"/>
    <path class="cls-1" d="M242.24,50.23l-2.16-2.05c-.62-.59-1.27-.51-1.97,.22-.16,.17-.16,.35,.03,.52,.05,.05,.14,.12,.27,.21,.12,.09,.21,.16,.27,.21,.4,.38,.3,.89-.31,1.53-.33,.35-.69,.54-1.08,.58s-.74-.08-1.04-.37c-.15-.14-.45-.5-.9-1.07-.2-.25-.5-.57-.91-.96-.44-.42-.8-.73-1.08-.94-.65-.47-1.02-.75-1.13-.86-.33-.32-.51-.68-.53-1.09s.14-.78,.45-1.11c.72-.76,1.37-.86,1.94-.32,.06,.06,.16,.17,.29,.32,.12,.15,.22,.26,.29,.32,.21,.19,.48,.24,.83,.14,.09-.03,.36-.16,.8-.38l8.29-4.25c.95-.48,1.67-.65,2.17-.53,.35,.11,.93,.55,1.74,1.32,.91,.86,1.43,1.46,1.56,1.8s.02,.84-.32,1.5l-4.49,8.88c-.36,.71-.43,1.16-.22,1.37,.06,.06,.19,.15,.39,.28l.18,.17c.61,.58,.57,1.22-.11,1.93-.34,.36-.72,.54-1.14,.55s-.8-.15-1.15-.48c-.15-.14-.34-.35-.55-.62-.25-.34-.43-.56-.52-.65-.22-.25-.52-.55-.89-.91-.41-.39-.7-.64-.86-.75-.63-.44-1.02-.72-1.16-.86-.29-.28-.43-.62-.41-1.02s.19-.77,.51-1.1c.61-.64,1.11-.76,1.53-.37,.05,.05,.13,.14,.22,.26s.17,.2,.22,.26c.21,.2,.42,.18,.63-.05,.28-.29,.45-.59,.51-.9,.07-.31,0-.55-.18-.72h0Zm2.11-2.72l2.38-4.06-4.29,2.5s-.08,.06-.12,.1c-.12,.13-.05,.32,.22,.58l1.01,.96c.28,.27,.49,.33,.64,.17,0,0,.05-.07,.17-.24h-.01Z"/>
    <path class="cls-1" d="M260.4,57l-5,9.07,5.16-4.15c.78-.63,1.05-1.09,.8-1.39-.07-.08-.18-.18-.35-.31-.17-.12-.28-.23-.35-.31-.2-.24-.25-.54-.17-.89,.09-.35,.29-.65,.62-.91,.38-.31,.78-.45,1.19-.41,.41,.03,.76,.23,1.05,.59,.15,.19,.38,.53,.68,1.03,.31,.5,.6,.92,.88,1.27,.25,.31,.57,.66,.95,1.04,.57,.57,.92,.93,1.04,1.08,.3,.37,.42,.77,.38,1.19-.05,.42-.26,.78-.64,1.09-.33,.26-.67,.39-1.04,.38-.37,0-.66-.15-.88-.41-.08-.1-.18-.26-.27-.47-.1-.21-.19-.36-.26-.45-.19-.23-.45-.27-.8-.1-.14,.07-.39,.25-.76,.55l-7.1,5.7c-.77,.62-1.4,.61-1.91-.02-.09-.12-.23-.3-.4-.55s-.31-.44-.4-.55c0-.01-.25-.29-.72-.83l-.31-.38c-.27-.34-.39-.65-.36-.95,.02-.17,.16-.5,.43-1l4.97-9.53-5.27,4.23c-.79,.64-1.07,1.1-.82,1.41,.07,.08,.19,.19,.36,.33,.18,.14,.3,.24,.36,.33,.2,.24,.25,.54,.17,.89-.09,.35-.29,.65-.62,.91-.85,.68-1.6,.62-2.25-.2-.19-.23-.46-.64-.82-1.24-.24-.4-.51-.78-.8-1.14-.24-.3-.6-.69-1.07-1.15s-.76-.77-.87-.91c-.68-.85-.6-1.61,.25-2.3,.33-.26,.67-.39,1.04-.39s.66,.14,.87,.41c.08,.1,.18,.26,.28,.48,.1,.21,.19,.37,.27,.46,.25,.31,.77,.15,1.56-.48l4.83-3.88c.78-.63,1.04-1.1,.79-1.41-.07-.09-.21-.21-.39-.36-.19-.15-.32-.27-.4-.38-.21-.27-.28-.58-.21-.94,.08-.36,.28-.67,.6-.93,.38-.31,.78-.44,1.2-.39s.78,.25,1.08,.63c.2,.24,.45,.62,.77,1.13s.58,.9,.79,1.17c.18,.22,.5,.58,.98,1.08,.21,.24,.46,.5,.74,.78,.14,.12,.27,.26,.4,.43,.25,.31,.33,.66,.22,1.03-.04,.14-.2,.49-.49,1.03h.02Z"/>
    <path class="cls-1" d="M259.74,73.91c.21,.34,.75,.25,1.61-.27l5.29-3.22c.85-.52,1.18-.95,.97-1.29-.06-.1-.18-.24-.34-.41-.17-.17-.28-.31-.35-.43-.18-.29-.21-.61-.08-.96,.12-.34,.36-.63,.72-.84,.42-.26,.83-.33,1.25-.23,.41,.1,.74,.35,.99,.76,.13,.22,.36,.69,.7,1.41,.22,.48,.45,.92,.7,1.33,.09,.15,.33,.5,.71,1.04l.94,1.34c.25,.35,.48,.71,.7,1.07,1.4,2.31,1.43,4.55,.09,6.73-.75,1.23-1.76,2.22-3.02,2.99-1.26,.77-2.58,1.21-3.97,1.31-1.38,.11-2.59-.13-3.63-.72-.91-.53-1.7-1.34-2.37-2.43-.26-.43-.48-.81-.64-1.13l-.73-1.46c-.16-.32-.37-.69-.61-1.09-.31-.51-.59-.92-.84-1.25l-.54-.72c-.22-.27-.35-.45-.41-.54-.25-.41-.32-.82-.22-1.23s.36-.74,.78-1c.36-.22,.72-.3,1.08-.25s.63,.22,.81,.51c.07,.11,.14,.29,.22,.52,.08,.23,.15,.39,.2,.48v-.02Zm10.96,.13c-.26-.43-.51-.68-.73-.75s-.53,.02-.93,.26l-6.02,3.66c-.4,.24-.62,.48-.67,.71-.05,.23,.05,.56,.32,1,.43,.7,1.1,1.16,2.01,1.37,1.07,.24,2.27-.04,3.59-.85,1.49-.91,2.4-1.9,2.71-2.99,.14-.49,.17-.94,.11-1.37-.06-.36-.2-.71-.4-1.04h.01Z"/>
    <path class="cls-1" d="M272.87,94.44l-1.22-2.71c-.35-.77-.99-.95-1.91-.54-.22,.1-.27,.26-.17,.49,.03,.07,.09,.17,.17,.29,.08,.13,.14,.22,.17,.29,.23,.5-.06,.94-.86,1.3-.44,.2-.84,.24-1.22,.13s-.65-.35-.82-.73c-.09-.19-.23-.63-.43-1.33-.09-.3-.25-.71-.48-1.23-.25-.56-.47-.98-.65-1.28-.42-.68-.66-1.08-.72-1.22-.19-.42-.22-.82-.08-1.2s.42-.67,.84-.86c.95-.43,1.59-.28,1.92,.44,.04,.08,.08,.22,.14,.4,.06,.19,.11,.32,.14,.4,.12,.26,.35,.4,.71,.44,.1,0,.39-.01,.88-.06l9.28-.81c1.06-.08,1.79,.02,2.21,.33,.28,.23,.66,.86,1.12,1.88,.52,1.14,.77,1.89,.76,2.26s-.29,.79-.86,1.27l-7.51,6.53c-.6,.52-.84,.91-.72,1.18,.04,.08,.12,.21,.25,.4l.1,.22c.34,.76,.07,1.34-.83,1.75-.45,.2-.87,.23-1.26,.08-.4-.15-.69-.44-.89-.88-.09-.19-.18-.45-.28-.78-.1-.41-.18-.68-.24-.8-.11-.31-.27-.71-.48-1.18-.23-.52-.4-.86-.51-1.02-.42-.64-.67-1.05-.75-1.23-.17-.37-.16-.73,0-1.1,.17-.36,.47-.64,.89-.83,.8-.36,1.32-.29,1.55,.23,.03,.07,.07,.17,.11,.32,.04,.14,.08,.25,.11,.32,.12,.26,.32,.32,.6,.19,.37-.17,.64-.38,.82-.64s.21-.51,.11-.74v.03Zm2.99-1.71l3.74-2.87-4.91,.7s-.1,.02-.15,.04c-.16,.07-.17,.28-.01,.62l.57,1.26c.16,.35,.33,.49,.52,.4-.01,0,.07-.05,.25-.16h0Z"/>
    <path class="cls-1" d="M285.28,106.53c-.14-.46-.61-.56-1.39-.32l-6.02,1.88c-.56,.17-.9,.3-1.03,.39-.33,.23-.47,.54-.41,.93,.01,.09,.04,.2,.07,.33,.03,.13,.07,.27,.12,.43l.33,1.05c.36,1.15,.9,1.62,1.61,1.4,.21-.07,.43-.17,.66-.3,.33-.18,.6-.31,.8-.37,.46-.14,.89-.09,1.3,.16,.41,.25,.7,.62,.86,1.14,.36,1.14-.03,1.88-1.15,2.24-.13,.04-.29,.08-.48,.13s-.41,.09-.66,.14-.47,.09-.66,.14c-.19,.04-.34,.08-.46,.12-.14,.04-.28,.09-.42,.14s-.28,.11-.42,.17c-.28,.12-.49,.21-.65,.28-.16,.06-.25,.1-.28,.11-.78,.25-1.32-.1-1.61-1.02-.08-.24-.16-.54-.25-.88s-.2-.75-.31-1.22c-.34-1.39-.91-3.37-1.72-5.93-.12-.38-.24-.73-.36-1.03-.12-.3-.23-.57-.35-.82s-.22-.47-.31-.69c-.09-.21-.17-.43-.24-.64-.14-.44-.1-.85,.11-1.22s.55-.63,1-.77c.41-.13,.79-.12,1.12,.01s.55,.38,.66,.72c.04,.11,.06,.29,.08,.53s.05,.41,.08,.52c.12,.38,.66,.42,1.63,.12l5.91-1.85c.95-.3,1.37-.64,1.25-1.02-.04-.11-.11-.27-.23-.48-.12-.21-.2-.37-.24-.5-.1-.33-.05-.64,.15-.95,.2-.31,.5-.52,.9-.64,1.04-.33,1.72,.04,2.05,1.09,.06,.2,.21,.82,.45,1.88,.08,.35,.16,.68,.24,.99s.17,.61,.26,.89c.08,.24,.16,.47,.24,.7,.08,.22,.18,.44,.28,.66,.3,.66,.5,1.13,.59,1.43,.15,.47,.12,.89-.07,1.25s-.52,.62-.99,.77c-.41,.13-.79,.13-1.12,0s-.56-.36-.66-.68c-.05-.16-.09-.39-.14-.7-.04-.31-.09-.54-.14-.7h.02Z"/>
  </g>
  <path class="cls-1" d="M54.41,253.03l14.62,10.5-1.33,1.85-2.41-1.73-9.13,12.72-2.45-1.76,1.99-2.78c-1.07-.05-2.61-.6-3.98-1.59-3.25-2.33-3.84-5.89-2.06-8.36,1.64-2.28,4.87-3.06,8.2-.66,1.26,.9,2.43,2.2,3.09,3.29l1.88-2.62-9.76-7.01,1.33-1.85h.01Zm3.06,16.34l2.18-3.03c-.52-1-1.53-2.11-2.5-2.81-2.05-1.47-4.09-1.21-5.09,.19-.94,1.31-.63,3.17,1.22,4.5,1.19,.86,2.78,1.35,4.19,1.15Z"/>
  <path class="cls-1" d="M87.53,275.91l-2.6-1.36-7.24,13.87-2.67-1.4,3.39-6.5-6.53-3.41c-.68,0-1.43-.15-2.22-.44,.44,2.08,1.07,4.41,2.11,7.34l-2.69,.63c-1.48-3.97-2.74-9.31-2.92-13.62l2.54-.29c.08,.91,.19,2.04,.33,2.83,1.48,.92,2.82,1,3.59-.48,.6-1.15,.81-2.89,.64-4.62l-5.56-3.08,1.33-1.85,19.54,10.36-1.05,2.02h0Zm-7.96,2.39l2.68-5.14-6.29-3.28c.12,1.88-.12,3.58-.91,5.08-.15,.28-.31,.53-.48,.74l4.99,2.6h.01Z"/>
  <path class="cls-1" d="M76.11,289.48c-.83-.35-1.68-.49-2.51-.49l.27-2.36c.76-.05,2.03,.03,3.25,.55,2.83,1.2,3.63,3.68,2.7,5.87-.94,2.22-3.34,3.07-6.25,1.83-2.65-1.13-4.78-3.62-5.83-7.06l2.04-.83c1.18,3.21,2.69,4.86,4.41,5.59,1.43,.61,2.69,.54,3.2-.65,.46-1.07-.09-1.94-1.29-2.45h.01Z"/>
  <path class="cls-1" d="M106.94,282.45l-2.77-.89-5.1,14.8-2.85-.98,1.19-3.46c-1.6,.57-3.75,.53-5.7-.14-3.49-1.2-4.74-4.01-3.89-6.49,.4-1.15,1.16-1.95,2.13-2.43-.87-1.39-1.31-3.05-.71-4.78,.83-2.4,3.15-3.65,5.88-2.71,2.44,.84,3.53,2.84,2.84,4.87-.16,.48-.4,.9-.78,1.36l-1.93-.92c.15-.26,.28-.46,.37-.74,.33-.95-.06-1.76-1.11-2.12-1.16-.4-2.23,.04-2.69,1.37-.36,1.05-.12,2.01,.63,3.1,.94,.02,1.97,.2,3.05,.57l1.34,.46-.46,2.67-.72-.25c-2.75-.95-4.44-.88-4.96,.64-.41,1.2,.21,2.23,1.93,2.82,1.98,.68,4.1,.52,5.89-.49l2.8-8.14-1.8-.62,.74-2.15,7.33,2.47-.51,2.21-.14-.03Z"/>
  <path class="cls-1" d="M101.92,279.42l-1.36-2.59c-.76-1.47-1.53-2.25-2.92-2.63-.76-.21-1.64-.28-2.79-.29l-.06-2.59c1.23-.05,2.22,.02,3.03,.24,1.68,.45,2.74,1.54,3.59,3.19l1.09,2.11,.15-.04-.61-3.37c-.41-2.11-1.19-3.01-2.81-3.45-.63-.17-1.42-.27-2.36-.34l-.08-2.74c1.17,.04,2.18,.18,3.02,.4,2.81,.76,3.97,2.61,4.28,6.04l.6,6.53-2.77-.47h0Z"/>
  <path class="cls-1" d="M107.52,280.25l17.65,3.55-.45,2.23-2.91-.58-3.08,15.34-2.96-.59,.67-3.35c-1,.39-2.63,.52-4.28,.19-3.92-.79-5.92-3.78-5.32-6.77,.55-2.75,3.18-4.79,7.21-3.98,1.52,.31,3.13,1.01,4.17,1.73l.64-3.17-11.78-2.37,.45-2.23h0Zm9.52,13.63l.74-3.66c-.89-.69-2.26-1.29-3.44-1.53-2.48-.5-4.22,.58-4.56,2.27-.32,1.58,.73,3.14,2.97,3.59,1.44,.29,3.09,.08,4.3-.68h-.01Z"/>
  <path class="cls-1" d="M131.58,284.64l23.26,.37-.03,1.73-9.88,.39-.06,4.1c1.01-.51,2.19-.81,3.3-.79,3.32,.05,5.1,2.54,5.06,5.16-.04,2.33-1.51,4.5-3.36,6.25l-2.29-1.52c1.69-1.75,2.66-3.24,2.68-4.72,.02-1.19-.56-2.42-2.25-2.45-1.2-.02-2.35,.57-3.2,1.19l-.13,8.42-2.99-.05,.06-3.6c-.91,.7-2.27,1.1-3.6,1.08-2.88-.04-5.54-1.81-5.49-5.25,.05-3.39,2.69-4.96,5.65-4.92,1.22,.02,2.44,.3,3.58,.77l.06-3.73-10.5-.26,.13-2.18h0Zm10.23,11.4l.05-2.94c-.92-.38-1.97-.67-2.92-.68-1.71-.03-3.22,.74-3.25,2.68-.03,1.8,1.26,2.61,2.7,2.64,1.39,.02,2.65-.67,3.42-1.69h0Z"/>
  <path class="cls-1" d="M143.13,304.58c-.9,.02-1.73,.25-2.49,.58l-.73-2.26c.67-.36,1.86-.81,3.19-.84,3.07-.07,4.83,1.85,4.88,4.24,.05,2.41-1.78,4.17-4.94,4.24-2.88,.06-5.85-1.33-8.22-4.03l1.51-1.6c2.39,2.44,4.45,3.32,6.33,3.28,1.55-.03,2.68-.62,2.65-1.91-.03-1.17-.88-1.73-2.18-1.7h0Z"/>
  <path class="cls-1" d="M172.14,282.81l.51,1.81-3.74,.66,.64,4.96-.81,1.17-3.69,.47c-2.45,.31-4.22,1.53-3.92,3.81,.31,2.39,2.54,3.17,5.08,2.85,1.75-.22,3.55-.96,5.16-2.05l1.37,2.33c-1.49,1.23-3.49,2.1-5.83,2.4-4.53,.58-8.31-1.31-8.82-5.33-.44-3.41,1.78-5.99,6.02-6.53l2.26-.29-.42-3.3-11.13,.98-.06-1.73,6.03-.38"/>
  <path class="cls-1" d="M167.17,303.21c-.88,.15-1.68,.5-2.38,.94l-1.05-2.13c.61-.45,1.72-1.07,3.03-1.29,3.03-.52,5.04,1.13,5.44,3.48,.4,2.38-1.16,4.39-4.26,4.92-2.84,.48-5.98-.46-8.72-2.79l1.27-1.8c2.72,2.06,4.89,2.63,6.74,2.32,1.53-.26,2.56-1,2.34-2.28-.2-1.15-1.12-1.58-2.41-1.36h0Z"/>
  <path class="cls-1" d="M199.84,276.62l-2.55,1.06,4.49,15.2-2.89,.85-1.03-3.48c-.84,.99-2.11,1.98-3.86,2.49-2.53,.75-5.62,.28-7.13-2.15l-4.9,1.45,.55,1.88-1.22,1.44c-2.25-.33-4.97-1.46-5.42-2.9-.19-.66,.17-1.16,.8-1.34l1.51-.45-1.9-6.72-3.64,.66-.98-1.17,27.56-8.35,.62,1.53h0Zm-5.39,2.1l-15.36,4.53,1.9,6.43,5.03-1.48c-.38-3.03,1.92-5.21,4.92-6.09,1.46-.43,3.06-.57,4.36-.49l-.85-2.9h0Zm-.19,11.18l-4.11-4.7c-.97,.84-1.4,1.99-1.03,3.23,.55,1.88,2.51,2.35,4.2,1.85,.29-.08,.62-.21,.93-.39h.01Zm1.67-6.14c-1.11-.11-2.49,.02-3.56,.33-.23,.07-.44,.16-.64,.24l4.08,4.51c.52-.46,.93-.99,1.17-1.51l-1.06-3.58h0Z"/>
  <path class="cls-1" d="M199.22,275.09l20.34-10.89,1.24,1.74-8.77,4.79,1.86,3.66c.66-.93,1.56-1.74,2.55-2.24,2.96-1.5,5.7-.12,6.88,2.21,1.05,2.08,.76,4.69-.06,7.1l-2.73-.28c.68-2.33,.84-4.11,.17-5.43-.54-1.06-1.62-1.88-3.13-1.12-1.07,.54-1.81,1.6-2.27,2.55l3.81,7.51-2.67,1.35-1.63-3.21c-.48,1.04-1.5,2.04-2.68,2.64-2.57,1.3-5.75,.98-7.31-2.09-1.53-3.02,.06-5.64,2.71-6.98,1.09-.55,2.3-.87,3.52-.98l-1.69-3.33-9.53,4.53-.62-1.53h0Zm14.19,4.97l-1.33-2.62c-.99,.09-2.06,.33-2.91,.76-1.53,.77-2.5,2.16-1.63,3.88,.81,1.61,2.34,1.73,3.62,1.07,1.24-.63,2.03-1.83,2.24-3.09h.01Z"/>
  <path class="cls-1" d="M237.15,265.72l-4.89,3.48,1.14,1.6-.7,1.73c-2.22,.44-5.16,.26-6.07-.98-.38-.54-.22-1.15,.32-1.52l1.28-.91-3.92-5.5-3.51,2.32-1.24-1.74,15.81-11.25,1.32,1.86-2.39,1.7,9.08,12.75-2.46,1.75-3.76-5.29h-.01Zm-6.59,1.57l5.11-3.64-3.84-5.39-5.11,3.64,3.84,5.39Z"/>
  <path class="cls-1" d="M250.47,272.29l-3.74-.33c-2.06-.16-2.64,.17-3.52,.89-.25,.21-.71,.68-.96,1.02l-1.83-1.51c.43-.63,1.06-1.24,1.54-1.64,1.1-.89,2.27-1.31,3.99-1.14l4.85,.48-.33,2.22h0Z"/>
  <path class="cls-3" d="M9.45,125.9s-14.52,71.07,36.13,116.72"/>
  <path class="cls-3" d="M278.55,126.43s14.52,71.07-36.13,116.72"/>
  <path class="cls-1" d="M84.07,209c-.32,.34-.47,.58-.46,.72,.01,.11,.06,.21,.14,.32,.09,.1,.3,.32,.64,.64l.88,.83c.46,.44,.82,.67,1.07,.71,.25,.04,.53-.1,.84-.42,.08-.09,.17-.19,.28-.31,.2-.24,.32-.38,.36-.42,.24-.25,.47-.27,.71-.05,.28,.27,.31,.52,.09,.75-.07,.07-.12,.12-.17,.16l-.49,.38c-.14,.11-.28,.23-.41,.37-.08,.08-.18,.21-.32,.38-.13,.18-.24,.3-.32,.38-.25,.26-.54,.23-.88-.09-.07-.06-.21-.22-.43-.47-.15-.16-.39-.41-.71-.73l-.75-.71-1.6-1.52c-.16-.15-.44-.39-.83-.72-.05-.05-.15-.13-.29-.25s-.24-.21-.32-.28c-.28-.27-.32-.5-.12-.71,.18-.19,.37-.18,.57,.02,.05,.05,.13,.14,.22,.25s.16,.2,.21,.25c.34,.32,.72,.27,1.13-.17l3.31-3.49c.41-.43,.44-.81,.1-1.13-.09-.09-.17-.15-.23-.18-.12-.08-.22-.16-.29-.23-.09-.08-.13-.18-.14-.29,0-.11,.03-.21,.1-.29,.19-.2,.43-.17,.72,.1,.04,.04,.09,.09,.14,.15l.48,.55c.27,.31,.47,.53,.61,.66,.17,.16,.4,.35,.68,.56l.51,.38c.06,.04,.1,.08,.14,.11,.3,.28,.35,.53,.16,.73-.08,.08-.17,.12-.28,.12s-.21-.04-.3-.12c-.07-.06-.15-.16-.25-.28-.04-.06-.1-.13-.19-.22-.34-.32-.71-.27-1.12,.16l-3.2,3.38v.02Z"/>
  <path class="cls-1" d="M116.5,227.69l-.09-1.27c-.01-.14-.04-.23-.09-.28-.05-.05-.16-.1-.33-.16l-2.32-.79c-.18-.06-.3-.07-.39-.04-.08,.03-.22,.15-.4,.35l-.68,.75c-.06,.07-.11,.15-.13,.22-.08,.24,.05,.42,.39,.54,.09,.03,.21,.06,.38,.1,.17,.04,.29,.07,.37,.1,.36,.12,.49,.31,.4,.58-.08,.25-.32,.31-.71,.18-.07-.02-.16-.06-.28-.12l-.63-.29c-.12-.05-.32-.13-.59-.22-.31-.1-.52-.17-.65-.2l-.57-.13c-.25-.06-.44-.11-.55-.14-.34-.12-.47-.3-.38-.55,.09-.26,.3-.34,.63-.23,.07,.02,.12,.06,.14,.1l.17,.06c.24,.08,.44,.06,.62-.06,.07-.04,.22-.19,.44-.45l4.38-4.91c.25-.27,.58-.34,.98-.2s.61,.39,.63,.75l.43,6.43c.03,.41,.08,.69,.17,.84,.08,.16,.24,.27,.46,.35,.07,.02,.12,.04,.16,.04l.38,.09c.33,.11,.45,.29,.37,.54-.09,.27-.3,.34-.63,.23-.1-.03-.22-.08-.37-.15-.53-.25-.93-.41-1.2-.51-.32-.11-.85-.26-1.6-.44-.19-.05-.33-.09-.43-.12-.35-.12-.48-.31-.39-.56,.09-.26,.32-.32,.71-.19,.08,.03,.19,.07,.34,.14,.15,.07,.26,.11,.34,.14,.29,.1,.46,.04,.54-.16v-.33l-.02-.03Zm-.15-2.64l-.11-3.54-2.26,2.73s-.05,.06-.05,.07c-.02,.07,.03,.12,.16,.17l2.08,.7c.1,.04,.17,.02,.19-.04v-.1h-.01Z"/>
  <path class="cls-1" d="M146.82,231.45c0,.6,.23,.9,.7,.9,.07,0,.19,0,.33-.03s.26-.03,.33-.03c.12,0,.22,.04,.31,.12s.13,.17,.13,.27c0,.28-.21,.42-.62,.42h-.08s-.08,0-.1,0l-.68-.09c-.26-.03-.55-.05-.87-.05-.35,0-.66,0-.92,.04l-.69,.08s-.06,0-.1,0h-.1c-.4,0-.61-.14-.6-.42,0-.26,.15-.38,.44-.38,.07,0,.18,0,.33,.03,.15,.02,.26,.03,.33,.03,.46,0,.69-.3,.69-.9v-4.88c0-.57-.33-.85-1-.86h-.43c-.66,0-.99,.27-1,.83,0,.2,0,.34,0,.41l.05,.44c0,.07,0,.17,0,.3,0,.5-.18,.75-.54,.75-.34,0-.51-.19-.51-.55,0-.1,0-.28,.03-.54,.03-.38,.04-.63,.04-.73,0-.2,0-.41-.02-.62-.03-.42-.04-.6-.04-.54,0-.34,.18-.5,.53-.5,.13,0,.43,0,.89,.04,.05,0,.42,.02,1.13,.05h3.04c.17,0,.47,0,.89-.03,.38-.02,.67-.03,.88-.03,.46,0,.69,.17,.69,.49v.02c0,.08,0,.23-.04,.44-.02,.22-.05,.45-.08,.7v.13c0,.12,0,.31,.04,.56,.04,.34,.05,.54,.05,.62,0,.33-.18,.49-.54,.49s-.52-.2-.52-.6c0-.14,0-.36,.04-.64s.04-.5,.04-.64c0-.55-.36-.83-1.09-.84h-.38c-.34,0-.59,.06-.73,.18-.15,.12-.23,.33-.25,.62l-.06,.84-.02,4.08,.06,.02Z"/>
  <path class="cls-1" d="M181.43,225.16l-.89-.91c-.1-.1-.18-.15-.25-.16-.07,0-.19,.02-.36,.09l-2.28,.9c-.17,.07-.28,.14-.32,.22-.04,.08-.07,.25-.08,.52l-.03,1.01c0,.1,0,.18,.04,.25,.09,.24,.31,.29,.64,.16,.09-.03,.21-.09,.36-.17s.27-.13,.34-.16c.35-.14,.58-.08,.68,.18,.1,.24-.05,.44-.43,.59-.07,.03-.17,.06-.29,.09l-.67,.18c-.12,.03-.32,.11-.6,.21-.3,.12-.51,.21-.62,.27l-.52,.27c-.23,.12-.4,.2-.51,.24-.33,.13-.55,.08-.65-.17-.1-.26,0-.46,.33-.58,.07-.03,.13-.03,.17-.02l.17-.07c.23-.09,.38-.24,.43-.44,.03-.08,.04-.29,.05-.63l.17-6.58c0-.37,.22-.63,.62-.79,.39-.16,.72-.1,.97,.16l4.48,4.63c.28,.29,.51,.47,.67,.54,.16,.06,.36,.05,.58-.04,.07-.03,.12-.05,.15-.08l.35-.17c.33-.13,.54-.07,.63,.17,.1,.26,0,.46-.33,.58-.09,.04-.22,.08-.38,.12-.56,.15-.98,.28-1.24,.39-.32,.12-.82,.36-1.5,.7-.17,.09-.31,.15-.4,.19-.34,.13-.56,.08-.66-.18-.1-.25,.04-.45,.41-.6,.08-.03,.19-.07,.35-.11s.27-.08,.35-.11c.28-.11,.38-.27,.31-.47,0-.03-.09-.11-.22-.25l-.02,.03Zm-1.82-1.91l-2.37-2.63,.03,3.55v.09c.03,.07,.1,.07,.23,.02l2.04-.8c.1-.04,.14-.09,.12-.15,0,0-.03-.04-.06-.08h.01Z"/>
  <path class="cls-1" d="M200.65,206.55l5.89,2.6-3.13-6.12c-.16-.31-.15-.58,.05-.79l.05-.05c.06-.06,.15-.15,.27-.23,.16-.11,.25-.18,.29-.22,.12-.1,.26-.24,.43-.43,.19-.2,.32-.37,.42-.5l.28-.4s.05-.07,.1-.13c.29-.3,.53-.37,.74-.18,.19,.17,.18,.37-.02,.58-.05,.05-.13,.13-.24,.22-.12,.09-.19,.16-.24,.22-.32,.35-.26,.72,.17,1.12l.62,.57,.77,.72,.74,.7,1.38,1.3c.44,.41,.81,.44,1.13,.11,.07-.06,.12-.15,.18-.25,.12-.16,.2-.25,.23-.28,.2-.21,.4-.23,.58-.06,.21,.2,.18,.44-.09,.72,0-.01-.04,.03-.16,.14-.48,.42-.87,.79-1.17,1.12-.3,.31-.56,.64-.79,.97-.09,.13-.19,.25-.27,.34-.25,.26-.47,.3-.67,.12-.2-.19-.18-.42,.08-.68,.07-.06,.11-.12,.15-.14,.15-.14,.24-.21,.27-.24,.23-.24,.15-.6-.23-1.07-.08-.1-.37-.38-.87-.85-.19-.18-.46-.45-.82-.8l-.79-.73-1.55-1.45s-.07-.04-.1,0c-.02,.02-.02,.06,0,.11l3.27,6.52c.14,.28,.08,.58-.2,.88-.16,.18-.31,.28-.43,.32-.12,.05-.27,.02-.45-.05l-6.7-2.85c-.05,0-.09,0-.12,.03-.03,.03-.02,.06,.01,.09l4.11,3.73c.43,.39,.77,.45,1.01,.19,.07-.07,.16-.18,.29-.3l.11-.13c.25-.26,.47-.3,.67-.11,.2,.18,.17,.41-.08,.68-.05,.04-.11,.12-.21,.19-.15,.13-.33,.27-.5,.41-.14,.12-.32,.29-.51,.48-.34,.37-.56,.62-.65,.74l-.33,.49s-.03,.04-.05,.07c-.03,.03-.05,.04-.06,.06-.29,.3-.53,.37-.74,.18-.08-.08-.12-.17-.12-.28s.04-.21,.13-.3c.07-.07,.16-.16,.27-.23s.19-.15,.23-.2c.32-.35,.26-.72-.17-1.13l-3.53-3.3c-.44-.41-.81-.44-1.14-.1-.05,.05-.11,.14-.21,.26s-.15,.21-.21,.26c-.2,.21-.39,.23-.57,.05-.21-.19-.17-.44,.12-.74,.03-.03,.07-.06,.13-.13l.37-.32c.18-.16,.35-.32,.49-.47,.11-.13,.27-.31,.45-.55,.18-.24,.32-.41,.42-.51,.25-.26,.56-.31,.92-.12l.3,.15-.02-.02Z"/>
  <path class="cls-3" d="M131.54,285.09c4.96,.19,41.27,1.85,67.68-10,22.09-9.91,35.16-19.61,35.99-21.5"/>
</svg>